<?xml version="1.0" standalone="no"?>
<!DOCTYPE svg PUBLIC "-//W3C//DTD SVG 20010904//EN"
 "http://www.w3.org/TR/2001/REC-SVG-20010904/DTD/svg10.dtd">
<svg version="1.0" xmlns="http://www.w3.org/2000/svg"
 width="590.000000pt" height="590.000000pt" viewBox="0 0 590.000000 590.000000"
 preserveAspectRatio="xMidYMid meet">
<metadata>
Created by potrace 1.14, written by Peter Selinger 2001-2017
</metadata>
<g transform="translate(0.000000,590.000000) scale(0.100000,-0.100000)"
fill="#000000" stroke="none">
<path d="M1569 5408 c-7 -13 -21 -39 -32 -58 -35 -61 -96 -173 -155 -280 -19
-36 -46 -82 -59 -102 -13 -21 -23 -40 -23 -43 0 -3 -20 -40 -44 -83 -23 -42
-57 -102 -73 -132 -17 -30 -87 -157 -157 -283 -69 -125 -126 -232 -126 -237 0
-6 -4 -10 -10 -10 -5 0 -10 -5 -10 -10 0 -6 -29 -61 -64 -123 -35 -61 -79
-141 -98 -177 -54 -100 -95 -174 -170 -307 -37 -68 -68 -127 -68 -133 0 -5 -4
-10 -8 -10 -4 0 -13 -12 -19 -27 -6 -16 -28 -57 -48 -93 -20 -36 -55 -99 -77
-140 -23 -41 -44 -79 -48 -85 -4 -5 -21 -36 -38 -68 l-31 -58 23 -42 c173
-312 249 -449 366 -662 45 -82 93 -169 106 -192 14 -24 23 -44 22 -45 -2 -2 7
-17 20 -35 12 -17 22 -36 22 -42 0 -6 4 -11 9 -11 5 0 11 -8 14 -17 6 -19 31
-65 202 -373 110 -200 135 -244 200 -365 21 -38 45 -78 53 -87 8 -10 11 -18 7
-18 -4 0 -2 -8 7 -17 8 -10 29 -47 48 -83 18 -36 42 -76 52 -89 10 -13 18 -28
18 -33 0 -5 18 -40 40 -78 22 -37 55 -97 73 -132 19 -34 45 -83 59 -108 l26
-45 1371 -3 c1300 -2 1372 -1 1378 15 4 10 9 20 13 23 3 3 28 46 55 95 27 50
57 106 68 125 30 54 60 107 107 195 24 44 50 88 58 98 8 9 12 17 8 17 -3 0 5
18 19 40 14 22 25 44 25 49 0 5 3 11 8 13 7 3 13 14 81 143 20 39 39 72 44 73
4 2 7 7 7 12 0 4 16 37 36 72 42 73 70 125 145 262 30 54 63 115 75 135 11 20
40 72 64 116 24 44 54 98 66 120 13 22 37 66 54 98 17 32 40 72 50 90 11 17
23 39 27 47 8 17 132 242 187 338 20 35 36 65 36 67 0 2 15 30 34 62 18 32 47
84 64 115 l31 57 -24 43 c-13 24 -32 59 -42 78 -10 19 -36 67 -58 105 -21 39
-52 95 -68 125 -16 30 -33 60 -37 65 -4 6 -27 46 -51 90 -24 44 -56 103 -71
130 -15 28 -31 57 -35 65 -4 8 -44 81 -90 162 -46 81 -83 149 -83 151 0 2 -22
42 -48 88 -27 46 -67 118 -89 159 -44 82 -61 111 -169 307 -41 72 -74 136 -74
142 0 5 -3 11 -7 13 -5 2 -17 21 -29 43 -11 22 -66 121 -121 220 -55 99 -117
212 -138 250 -21 39 -60 109 -87 158 l-49 87 -1369 0 -1369 0 -12 -22z m1621
-391 c41 -5 133 -20 192 -32 13 -2 50 -11 83 -20 33 -8 67 -17 75 -19 8 -2 35
-11 60 -20 25 -9 52 -18 60 -20 8 -2 58 -23 110 -46 52 -23 103 -44 113 -47 9
-3 17 -9 17 -14 0 -5 6 -9 13 -9 7 0 58 -27 112 -61 332 -201 607 -497 778
-834 56 -111 122 -278 143 -357 1 -5 2 -9 4 -10 1 -2 3 -10 5 -18 1 -8 8 -35
15 -60 7 -25 13 -54 15 -65 1 -11 5 -33 8 -50 25 -119 32 -207 31 -400 0 -99
-3 -201 -7 -227 -15 -99 -19 -125 -34 -193 -20 -93 -21 -100 -23 -100 -1 0 -3
-9 -5 -21 -3 -11 -18 -61 -35 -110 -18 -49 -34 -98 -38 -109 -18 -65 -194
-384 -237 -431 -5 -7 -19 -24 -30 -40 -63 -88 -206 -242 -307 -329 -178 -156
-400 -288 -619 -369 -92 -34 -260 -85 -302 -91 -12 -2 -49 -8 -82 -14 -116
-21 -182 -26 -350 -26 -209 0 -286 8 -480 50 -131 28 -288 85 -442 161 -332
163 -606 401 -811 706 -57 85 -138 230 -134 241 1 4 -2 7 -8 7 -5 0 -10 5 -10
10 0 6 -9 29 -20 53 -77 168 -139 392 -167 602 -9 73 -9 421 0 490 7 47 28
164 42 230 14 66 60 216 93 300 13 32 146 299 152 305 3 3 18 25 34 50 40 63
123 175 165 224 112 128 311 302 437 383 10 7 36 24 57 38 43 28 294 153 317
157 8 2 17 5 20 8 10 11 207 70 296 90 92 20 131 26 219 36 27 3 51 7 53 9 5
5 369 -2 422 -8z"/>
<path d="M2766 4863 c-3 -3 -22 -6 -43 -8 -70 -7 -117 -15 -187 -30 -74 -16
-234 -63 -251 -73 -5 -4 -15 -7 -22 -8 -14 -2 -98 -41 -198 -91 -62 -32 -222
-128 -235 -143 -3 -3 -32 -25 -65 -50 -88 -65 -272 -253 -343 -350 -34 -47
-66 -90 -70 -95 -17 -21 -108 -182 -134 -235 -28 -60 -88 -205 -93 -230 -2 -8
-9 -31 -15 -50 -15 -49 -51 -208 -57 -250 -2 -19 -8 -60 -13 -90 -8 -59 -6
-400 3 -437 3 -12 8 -48 12 -79 3 -32 8 -61 10 -64 2 -4 7 -22 10 -41 12 -68
65 -241 100 -324 55 -130 201 -384 226 -393 5 -2 9 -8 9 -14 0 -16 129 -165
212 -243 142 -135 298 -245 475 -334 55 -28 104 -51 108 -51 4 0 21 -7 38 -15
18 -8 74 -28 124 -44 80 -26 126 -37 218 -55 11 -2 31 -7 45 -10 57 -13 154
-19 310 -20 167 -1 265 6 365 27 17 4 41 9 55 11 14 3 43 10 65 16 44 12 42
11 105 30 25 7 50 14 55 16 22 4 213 89 265 117 77 42 270 169 270 179 0 4 5
8 10 8 27 0 265 236 338 335 28 39 55 75 60 80 4 6 19 28 32 50 13 22 28 41
32 43 4 2 8 7 8 11 0 5 17 40 39 79 61 112 135 293 157 385 1 4 2 8 4 10 4 5
38 162 45 208 2 19 9 60 13 92 12 77 12 345 1 427 -5 36 -11 79 -13 95 -22
164 -76 332 -177 550 -105 228 -348 519 -569 682 -95 70 -245 161 -330 200
-89 40 -118 53 -123 53 -3 0 -18 5 -34 12 -15 6 -30 12 -33 13 -3 1 -38 11
-79 24 -106 33 -203 52 -346 70 -70 9 -381 12 -389 4z m278 -445 c202 -60 309
-263 244 -462 -31 -96 -84 -156 -183 -208 -55 -30 -67 -32 -155 -32 -84 0
-102 3 -153 28 -89 44 -155 119 -187 211 -43 126 -9 272 87 368 90 90 232 129
347 95z m-1149 -668 c72 -17 73 -17 155 -35 41 -9 84 -19 95 -21 18 -4 45 -10
143 -29 13 -2 31 -6 40 -9 9 -3 35 -7 57 -10 22 -4 53 -9 69 -12 16 -3 40 -7
55 -9 39 -3 132 -16 166 -22 67 -11 454 -10 550 2 215 27 279 37 385 60 36 8
81 17 100 20 29 5 169 36 233 51 9 2 27 6 40 9 12 2 36 8 52 12 69 15 116 7
157 -30 109 -95 56 -256 -92 -284 -14 -2 -43 -9 -65 -14 -22 -5 -51 -12 -65
-15 -14 -3 -43 -10 -65 -16 -22 -6 -53 -12 -70 -15 -16 -2 -46 -8 -65 -13 -19
-5 -52 -12 -74 -16 -21 -3 -48 -8 -60 -10 -11 -3 -34 -7 -51 -10 -16 -3 -55
-9 -85 -14 -83 -14 -143 -22 -162 -22 -10 0 -21 -4 -25 -11 -4 -6 -5 -75 -4
-152 2 -77 4 -166 5 -197 0 -32 3 -58 6 -58 3 0 5 -35 6 -78 0 -73 9 -205 19
-282 10 -77 15 -116 19 -136 2 -12 7 -37 10 -55 5 -30 10 -55 32 -159 2 -14 8
-34 11 -45 4 -11 8 -22 8 -25 17 -70 103 -306 135 -371 4 -8 7 -39 5 -68 -10
-166 -221 -231 -318 -99 -46 64 -167 404 -203 573 -14 64 -26 124 -30 155 -2
19 -6 44 -9 55 -2 11 -4 26 -4 33 -1 8 -18 12 -50 12 -55 0 -49 9 -67 -115 -3
-22 -7 -48 -10 -57 -5 -17 -11 -44 -20 -92 -2 -16 -7 -32 -9 -36 -2 -4 -6 -20
-9 -37 -8 -43 -73 -241 -96 -290 -11 -24 -20 -47 -20 -53 0 -18 -60 -143 -78
-163 -31 -34 -85 -55 -138 -53 -129 4 -206 137 -153 261 7 17 13 32 14 35 1 3
7 19 14 35 50 124 101 278 101 303 0 10 3 22 8 26 4 4 7 11 7 14 1 7 10 51 20
102 3 14 8 39 10 55 3 17 7 41 10 55 32 157 75 883 53 905 -6 7 -39 14 -88 20
-19 2 -89 13 -155 24 -163 28 -171 30 -241 46 -34 8 -73 16 -85 19 -13 2 -46
10 -74 16 -27 7 -63 14 -80 17 -16 3 -38 9 -47 14 -10 5 -18 7 -18 5 0 -12
-83 26 -105 48 -58 58 -55 170 7 228 49 46 90 52 193 28z"/>
</g>
</svg>
